{"title":"The Bleeding House 2011 DVDRip Xvid BigPerm LKRG","uid":6713946,"size":758010357,"categoryP":"video","categoryS":"movies","magnet":"?xt=urn:btih:60a61985d6be853918b9d3e034881d329ee05b12&amp;dn=The+Bleeding+House+2011+DVDRip+Xvid+BigPerm+LKRG&amp;tr=udp%3A%2F%2Ftracker.openbittorrent.com%3A80&amp;tr=udp%3A%2F%2Fopen.demonii.com%3A1337&amp;tr=udp%3A%2F%2Ftracker.coppersurfer.tk%3A6969&amp;tr=udp%3A%2F%2Fexodus.desync.com%3A6969","seeders":1,"leechers":3,"uploader":"neon","files":-1,"time":1317428058,"description":"A stranger with mysterious intentions comes to stay the night at a secluded country home, but what he finds inside is a family torn apart by a violent past and a secret more deadly than he expected. \n &lt;a href=&quot;\nhttp://www.shotpix.com/images/07944772348866296428.png&quot; rel=&quot;nofollow&quot; target=&quot;_NEW&quot;&gt;\nhttp://www.shotpix.com/images/07944772348866296428.png&lt;/a&gt; &lt;a href=&quot;\nhttp://www.shotpix.com/images/80071680323655398018.png&quot; rel=&quot;nofollow&quot; target=&quot;_NEW&quot;&gt;\nhttp://www.shotpix.com/images/80071680323655398018.png&lt;/a&gt; &lt;a href=&quot;\nhttp://www.shotpix.com/images/03202558266817358678.png&quot; rel=&quot;nofollow&quot; target=&quot;_NEW&quot;&gt;\nhttp://www.shotpix.com/images/03202558266817358678.png&lt;/a&gt; &lt;a href=&quot;\nhttp://www.shotpix.com/images/06024169725632222125.png&quot; rel=&quot;nofollow&quot; target=&quot;_NEW&quot;&gt;\nhttp://www.shotpix.com/images/06024169725632222125.png&lt;/a&gt;\n\nEncoded By .......: BigPerm1828\nRuntime ..........: 1h 26mn\nFile Size ........: 723 MB\nResolution .......: 640 x 272\nIMDb URL .........: &lt;a href=&quot; http://www.imdb.com/title/tt1535566/&quot; rel=&quot;nofollow&quot; target=&quot;_NEW&quot;&gt; http://www.imdb.com/title/tt1535566/&lt;/a&gt;\nGenre ............: Horror,Thriller\nLanguage .........: English\nSubtitles ........: None\nVideo\nID : 0\nFormat : MPEG-4 Visual\nFormat profile : Advanced Simple@L5\nFormat settings, BVOP : Yes\nFormat settings, QPel : No\nFormat settings, GMC : No warppoints\nFormat settings, Matrix : Default (H.263)\nMuxing mode : Packed bitstream\nCodec ID : XVID\nCodec ID/Hint : XviD\nDuration : 1h 26mn\nBit rate : 771 Kbps\nWidth : 640 pixels\nHeight : 272 pixels\nDisplay aspect ratio : 2.35:1\nFrame rate : 29.970 fps\nColor space : YUV\nChroma subsampling : 4:2:0\nBit depth : 8 bits\nScan type : Progressive\nCompression mode : Lossy\nBits/(Pixel*Frame) : 0.148\nStream size : 478 MiB (66%)\nWriting library : XviD 1.2.1 (UTC 2008-12-04)\nAudio\nID : 1\nFormat : AC-3\nFormat/Info : Audio Coding 3\nMode extension : CM (complete main)\nCodec ID : 2000\nDuration : 1h 26mn\nBit rate mode : Constant\nBit rate : 384 Kbps\nChannel(s) : 6 channels\nChannel positions : Front: L C R, Side: L R, LFE\nSampling rate : 48.0 KHz\nBit depth : 16 bits\nCompression mode : Lossy\nStream size : 238 MiB (33%)\nAlignment : Aligned on interleaves\nInterleave, duration : 33 ms (1.00 video frame)\nInterleave, preload duration : 512 ms\n\nthanks to BigPerm1828\n","torrent":{"xt":"urn:btih:60a61985d6be853918b9d3e034881d329ee05b12","amp;dn":"The+Bleeding+House+2011+DVDRip+Xvid+BigPerm+LKRG","amp;tr":["udp%3A%2F%2Ftracker.openbittorrent.com%3A80","udp%3A%2F%2Fopen.demonii.com%3A1337","udp%3A%2F%2Ftracker.coppersurfer.tk%3A6969","udp%3A%2F%2Fexodus.desync.com%3A6969"],"infoHash":"60a61985d6be853918b9d3e034881d329ee05b12","infoHashBuffer":{"type":"Buffer","data":[96,166,25,133,214,190,133,57,24,185,211,224,52,136,29,50,158,224,91,18]},"announce":[],"urlList":[]}}